<svg width="21" height="17" viewBox="0 0 21 17" fill="none" xmlns="http://www.w3.org/2000/svg">
<path d="M10.4999 13.2812C8.01108 13.2812 5.9964 11.3319 5.81101 8.86158L2.36898 6.16983C1.9165 6.74424 1.50011 7.35152 1.16411 8.01557C1.08905 8.16582 1.04994 8.33181 1.04994 8.50017C1.04994 8.66852 1.08905 8.83452 1.16411 8.98476C2.94353 12.4979 6.46627 14.8749 10.4999 14.8749C11.3829 14.8749 12.2347 14.7421 13.0557 14.5276L11.353 13.1945C11.0718 13.2495 10.7863 13.2785 10.4999 13.2812ZM20.7971 15.2103L17.1697 12.3734C18.2716 11.4338 19.1778 10.2818 19.8357 8.98443C19.9107 8.83418 19.9499 8.66819 19.9499 8.49983C19.9499 8.33148 19.9107 8.16549 19.8357 8.01524C18.0563 4.50205 14.5335 2.12507 10.4999 2.12507C8.81055 2.12714 7.14864 2.55749 5.66597 3.37681L1.49158 0.111981C1.43715 0.0691183 1.3749 0.0375301 1.30839 0.0190211C1.24189 0.000512081 1.17243 -0.00455493 1.10399 0.00410959C1.03555 0.0127741 0.96947 0.0350003 0.909522 0.0695181C0.849574 0.104036 0.796936 0.150169 0.754614 0.20528L0.110507 1.04431C0.0250628 1.15554 -0.0132241 1.29655 0.00406681 1.43634C0.0213577 1.57612 0.0928103 1.70323 0.20271 1.78972L19.5082 16.888C19.5626 16.9309 19.6249 16.9625 19.6914 16.981C19.7579 16.9995 19.8274 17.0046 19.8958 16.9959C19.9642 16.9872 20.0303 16.965 20.0903 16.9305C20.1502 16.896 20.2029 16.8498 20.2452 16.7947L20.8896 15.9557C20.975 15.8444 21.0133 15.7034 20.9959 15.5636C20.9786 15.4238 20.907 15.2967 20.7971 15.2103ZM14.7688 10.4955L13.4793 9.48679C13.5879 9.16919 13.6455 8.83604 13.6499 8.5C13.6563 8.00802 13.5486 7.52138 13.3354 7.07917C13.1222 6.63695 12.8095 6.25149 12.4224 5.95375C12.0353 5.65601 11.5846 5.45428 11.1065 5.36477C10.6284 5.27527 10.1362 5.30047 9.66942 5.43837C9.86728 5.70967 9.97431 6.03784 9.9749 6.37502C9.97 6.48722 9.95306 6.59856 9.92437 6.70705L7.50905 4.81814C8.34805 4.10867 9.4065 3.71962 10.4999 3.7188C11.1205 3.71845 11.7351 3.84188 12.3085 4.08204C12.8819 4.32219 13.4029 4.67436 13.8417 5.1184C14.2806 5.56245 14.6286 6.08966 14.8659 6.6699C15.1032 7.25014 15.2252 7.87203 15.2249 8.5C15.2249 9.21818 15.0513 9.88754 14.7688 10.4958V10.4955Z" fill="#3B3B5A"/>
</svg>
