<svg width="37" height="33" viewBox="0 0 37 33" fill="none" xmlns="http://www.w3.org/2000/svg">
<rect x="0.85553" y="0.0315552" width="35.6121" height="32.1262" rx="16.0631" fill="white"/>
<path d="M28.5729 18.0191C28.5194 17.8426 28.4117 17.6885 28.2658 17.5795C28.1199 17.4705 27.9436 17.4124 27.7629 17.4139L27.5345 17.4563C26.0471 17.8761 24.4774 17.8849 22.9856 17.482C21.4938 17.079 20.1333 16.2786 19.0427 15.1625C17.9522 14.0463 17.1708 12.6544 16.7781 11.1286C16.3854 9.60287 16.3956 7.99791 16.8076 6.47749C16.8279 6.41591 16.8384 6.35138 16.8387 6.28637C16.8486 6.14934 16.8254 6.01194 16.7711 5.88623C16.7169 5.76051 16.6333 5.65035 16.5277 5.56542C16.422 5.48048 16.2976 5.42338 16.1654 5.39913C16.0331 5.37487 15.897 5.38421 15.7691 5.42633C14.0233 5.92666 12.4361 6.88565 11.1653 8.20789C9.89447 9.53013 8.98438 11.1695 8.52554 12.963C8.0667 14.7565 8.0751 16.6416 8.54992 18.4308C9.02473 20.2199 9.9494 21.8508 11.232 23.1611C12.5145 24.4715 14.1102 25.4156 15.8604 25.8997C17.6106 26.3837 19.4542 26.3908 21.2079 25.9202C22.9615 25.4495 24.5641 24.5176 25.8563 23.2172C27.1484 21.9167 28.085 20.293 28.5729 18.5075C28.6251 18.3491 28.6251 18.1775 28.5729 18.0191ZM18.5729 24.5703C16.5833 24.5719 14.6529 23.878 13.102 22.6037C11.5511 21.3294 10.4728 19.5512 10.0461 17.5642C9.61939 15.5772 9.86983 13.5007 10.7559 11.6793C11.642 9.85778 13.1104 8.40076 14.9176 7.54989C14.7221 9.15236 14.887 10.7793 15.3997 12.3067C15.9124 13.8342 16.7595 15.2217 17.8762 16.3636C18.993 17.5055 20.35 18.3716 21.8438 18.8959C23.3377 19.4201 24.9288 19.5887 26.496 19.3888C25.7934 20.933 24.675 22.2406 23.2718 23.1583C21.8685 24.076 20.2386 24.5657 18.5729 24.5703Z" fill="black"/>
</svg>
