<svg width="36" height="33" viewBox="0 0 36 33" fill="none" xmlns="http://www.w3.org/2000/svg">
<rect width="35.6121" height="32.1262" rx="16.0631" fill="#8D8D8D"/>
<path d="M17.6445 9.38511C16.2436 9.38511 14.8741 9.80054 13.7092 10.5789C12.5444 11.3572 11.6365 12.4635 11.1004 13.7578C10.5643 15.0521 10.424 16.4763 10.6973 17.8503C10.9706 19.2244 11.6452 20.4865 12.6359 21.4771C13.6265 22.4677 14.8886 23.1424 16.2626 23.4157C17.6367 23.689 19.0609 23.5487 20.3552 23.0126C21.6495 22.4765 22.7558 21.5686 23.5341 20.4037C24.3124 19.2389 24.7279 17.8694 24.7279 16.4684C24.7251 14.5907 23.9779 12.7906 22.6502 11.4628C21.3224 10.135 19.5223 9.38787 17.6445 9.38511ZM17.6445 21.8851C16.5732 21.8851 15.526 21.5674 14.6352 20.9722C13.7444 20.377 13.0502 19.5311 12.6402 18.5413C12.2302 17.5515 12.1229 16.4624 12.3319 15.4117C12.5409 14.361 13.0568 13.3958 13.8144 12.6383C14.5719 11.8807 15.5371 11.3649 16.5878 11.1559C17.6385 10.9469 18.7276 11.0541 19.7174 11.4641C20.7072 11.8741 21.5531 12.5683 22.1483 13.4591C22.7435 14.3499 23.0612 15.3971 23.0612 16.4684C23.0612 17.905 22.4905 19.2828 21.4747 20.2986C20.4589 21.3144 19.0811 21.8851 17.6445 21.8851ZM16.8112 6.88511V4.80178C16.8112 4.58076 16.899 4.3688 17.0553 4.21252C17.2116 4.05624 17.4235 3.96844 17.6445 3.96844C17.8655 3.96844 18.0775 4.05624 18.2338 4.21252C18.3901 4.3688 18.4779 4.58076 18.4779 4.80178V6.88511C18.4779 7.10613 18.3901 7.31809 18.2338 7.47437C18.0775 7.63065 17.8655 7.71844 17.6445 7.71844C17.4235 7.71844 17.2116 7.63065 17.0553 7.47437C16.899 7.31809 16.8112 7.10613 16.8112 6.88511ZM8.80078 8.81219C8.70974 8.73748 8.63535 8.64453 8.5824 8.53933C8.52945 8.43413 8.49911 8.319 8.49333 8.20137C8.48756 8.08374 8.50647 7.9662 8.54886 7.85631C8.59124 7.74643 8.65617 7.64664 8.73945 7.56336C8.82273 7.48008 8.92252 7.41516 9.0324 7.37277C9.14228 7.33038 9.25982 7.31147 9.37746 7.31725C9.49509 7.32302 9.61021 7.35336 9.71541 7.40632C9.82061 7.45927 9.91356 7.53366 9.98828 7.62469L11.457 9.10386C11.6129 9.26008 11.7004 9.47174 11.7004 9.6924C11.7004 9.91307 11.6129 10.1247 11.457 10.2809C11.2995 10.4343 11.0883 10.5201 10.8685 10.5201C10.6486 10.5201 10.4375 10.4343 10.2799 10.2809L8.80078 8.81219ZM8.0612 17.3018H5.97786C5.75685 17.3018 5.54489 17.214 5.38861 17.0577C5.23233 16.9014 5.14453 16.6895 5.14453 16.4684C5.14453 16.2474 5.23233 16.0355 5.38861 15.8792C5.54489 15.7229 5.75685 15.6351 5.97786 15.6351H8.0612C8.28221 15.6351 8.49417 15.7229 8.65045 15.8792C8.80673 16.0355 8.89453 16.2474 8.89453 16.4684C8.89453 16.6895 8.80673 16.9014 8.65045 17.0577C8.49417 17.214 8.28221 17.3018 8.0612 17.3018ZM11.457 22.6559C11.6129 22.8122 11.7004 23.0238 11.7004 23.2445C11.7004 23.4652 11.6129 23.6768 11.457 23.833L9.98828 25.3122C9.82832 25.4651 9.61582 25.5508 9.39453 25.5518C9.17366 25.5488 8.96188 25.4633 8.80078 25.3122C8.6443 25.1542 8.55651 24.9408 8.55651 24.7184C8.55651 24.4961 8.6443 24.2827 8.80078 24.1247L10.2799 22.6559C10.4362 22.5001 10.6478 22.4126 10.8685 22.4126C11.0892 22.4126 11.3008 22.5001 11.457 22.6559ZM18.4779 26.0518V28.1351C18.4779 28.3561 18.3901 28.5681 18.2338 28.7244C18.0775 28.8806 17.8655 28.9684 17.6445 28.9684C17.4235 28.9684 17.2116 28.8806 17.0553 28.7244C16.899 28.5681 16.8112 28.3561 16.8112 28.1351V26.0518C16.8112 25.8308 16.899 25.6188 17.0553 25.4625C17.2116 25.3062 17.4235 25.2184 17.6445 25.2184C17.8655 25.2184 18.0775 25.3062 18.2338 25.4625C18.3901 25.6188 18.4779 25.8308 18.4779 26.0518ZM26.4883 24.1247C26.6448 24.2827 26.7326 24.4961 26.7326 24.7184C26.7326 24.9408 26.6448 25.1542 26.4883 25.3122C26.3272 25.4633 26.1154 25.5488 25.8945 25.5518C25.6732 25.5508 25.4607 25.4651 25.3008 25.3122L23.832 23.833C23.6884 23.6745 23.6112 23.4668 23.6165 23.253C23.6218 23.0391 23.7091 22.8355 23.8603 22.6842C24.0116 22.533 24.2152 22.4457 24.4291 22.4404C24.6429 22.4351 24.8506 22.5123 25.0091 22.6559L26.4883 24.1247ZM30.1445 16.4684C30.1445 16.6895 30.0567 16.9014 29.9005 17.0577C29.7442 17.214 29.5322 17.3018 29.3112 17.3018H27.2279C27.0069 17.3018 26.7949 17.214 26.6386 17.0577C26.4823 16.9014 26.3945 16.6895 26.3945 16.4684C26.3945 16.2474 26.4823 16.0355 26.6386 15.8792C26.7949 15.7229 27.0069 15.6351 27.2279 15.6351H29.3112C29.5322 15.6351 29.7442 15.7229 29.9005 15.8792C30.0567 16.0355 30.1445 16.2474 30.1445 16.4684ZM23.832 10.2809C23.6762 10.1247 23.5887 9.91307 23.5887 9.6924C23.5887 9.47174 23.6762 9.26008 23.832 9.10386L25.3008 7.62469C25.4627 7.49181 25.6682 7.4239 25.8775 7.43417C26.0867 7.44445 26.2846 7.53217 26.4327 7.68029C26.5808 7.8284 26.6685 8.02631 26.6788 8.23552C26.6891 8.44473 26.6212 8.65028 26.4883 8.81219L25.0091 10.2809C24.8516 10.4343 24.6404 10.5201 24.4206 10.5201C24.2007 10.5201 23.9896 10.4343 23.832 10.2809Z" fill="white"/>
</svg>
